<svg version="1.1" xmlns="http://www.w3.org/2000/svg" xmlns:xlink="http://www.w3.org/1999/xlink" width="332" height="258.31741" viewBox="0,0,332,258.31741"><defs><linearGradient x1="369.06538" y1="76.34158" x2="110.52373" y2="117.1984" gradientUnits="userSpaceOnUse" id="color-1"><stop offset="0" stop-color="#f7ff00"/><stop offset="1" stop-color="#f7ff00" stop-opacity="0"/></linearGradient><linearGradient x1="365.06634" y1="83.43145" x2="130.71062" y2="200.00958" gradientUnits="userSpaceOnUse" id="color-2"><stop offset="0" stop-color="#f7ff00"/><stop offset="1" stop-color="#f7ff00" stop-opacity="0"/></linearGradient><linearGradient x1="368.3877" y1="91.90986" x2="295.04188" y2="295.69591" gradientUnits="userSpaceOnUse" id="color-3"><stop offset="0" stop-color="#f7ff00"/><stop offset="1" stop-color="#f7ff00" stop-opacity="0"/></linearGradient><linearGradient x1="374.06717" y1="87.01066" x2="378.6571" y2="304.79179" gradientUnits="userSpaceOnUse" id="color-4"><stop offset="0" stop-color="#f7ff00"/><stop offset="1" stop-color="#f7ff00" stop-opacity="0"/></linearGradient><linearGradient x1="370.85406" y1="80.20671" x2="187.02876" y2="266.5433" gradientUnits="userSpaceOnUse" id="color-5"><stop offset="0" stop-color="#f7ff00"/><stop offset="1" stop-color="#f7ff00" stop-opacity="0"/></linearGradient><linearGradient x1="369.21801" y1="69.65359" x2="109.45252" y2="37.48294" gradientUnits="userSpaceOnUse" id="color-6"><stop offset="0" stop-color="#f7ff00"/><stop offset="1" stop-color="#f7ff00" stop-opacity="0"/></linearGradient></defs><g transform="translate(-74,-50.5)"><g data-paper-data="{&quot;isPaintingLayer&quot;:true}" fill-rule="nonzero" stroke-linejoin="miter" stroke-miterlimit="10" stroke-dasharray="" stroke-dashoffset="0" style="mix-blend-mode: normal"><path d="M74,308.81741v-257.63482h332v257.63482z" fill="#00fdff" stroke="#00ccff" stroke-width="0" stroke-linecap="butt"/><path d="M107.85067,100.2833l260.10256,-30.97939l2.2243,14.07533l-256.98074,50.73425z" fill="url(#color-1)" stroke="none" stroke-width="0" stroke-linecap="butt"/><path d="M123.0835,184.67685l238.80952,-107.6247l6.34666,12.75862l-229.90193,125.53154z" fill="url(#color-2)" stroke="none" stroke-width="0" stroke-linecap="butt"/><path d="M281.70917,290.89726l81.13134,-200.98392l11.09437,3.99304l-65.5603,206.58818z" fill="url(#color-3)" stroke="none" stroke-width="0" stroke-linecap="butt"/><path d="M361.53473,305.04168l5.40854,-217.92705l14.24781,-0.20794l14.58839,217.63521z" fill="url(#color-4)" stroke="none" stroke-width="0" stroke-linecap="butt"/><path d="M174.83769,254.51652l190.94417,-179.31365l10.1444,10.00768l-176.70642,193.35952z" fill="url(#color-5)" stroke="none" stroke-width="0" stroke-linecap="butt"/><path d="M341.42188,80.5c0,-16.56854 13.43146,-30 30,-30c16.56854,0 30,13.43146 30,30c0,16.56854 -13.43146,30 -30,30c-16.56854,0 -30,-13.43146 -30,-30z" fill="#f7ff00" stroke="none" stroke-width="0" stroke-linecap="butt"/><g fill="#e6e6e6" stroke="none" stroke-width="0" stroke-linecap="butt"><path d="M249.25,119.96786c0,-6.47648 5.25023,-11.7267 11.72671,-11.7267c6.47648,0 11.7267,5.25023 11.7267,11.7267c0,6.47648 -5.25022,11.72671 -11.7267,11.72671c-6.47648,0 -11.72671,-5.25023 -11.72671,-11.72671z"/><path d="M264.11681,110.00016c0,-7.73131 6.26745,-13.99876 13.99876,-13.99876c7.73131,0 13.99876,6.26745 13.99876,13.99876c0,7.73131 -6.26745,13.99876 -13.99876,13.99876c-7.73131,0 -13.99876,-6.26745 -13.99876,-13.99876z"/><path d="M285.81122,114.32438c0,-5.26215 4.26581,-9.52795 9.52796,-9.52795c5.26214,0 9.52795,4.2658 9.52795,9.52795c0,5.26215 -4.2658,9.52795 -9.52795,9.52795c-5.26214,0 -9.52796,-4.26581 -9.52796,-9.52795z"/><path d="M293.22515,119.96786c0,-6.47648 5.25023,-11.7267 11.72671,-11.7267c6.47648,0 11.7267,5.25023 11.7267,11.7267c0,6.47648 -5.25022,11.72671 -11.7267,11.72671c-6.47648,0 -11.72671,-5.25023 -11.72671,-11.72671z"/><path d="M259.42613,131.76786v-20.96149h46.17391v20.96149z"/></g><g fill="#e6e6e6" stroke="none" stroke-width="0" stroke-linecap="butt"><path d="M330.82143,117.53929c0,-6.47648 5.25023,-11.72671 11.7267,-11.72671c6.47648,0 11.72671,5.25023 11.72671,11.72671c0,6.47648 -5.25023,11.72671 -11.72671,11.72671c-6.47648,0 -11.7267,-5.25023 -11.7267,-11.72671z"/><path d="M345.68824,107.57159c0,-7.73131 6.26745,-13.99876 13.99876,-13.99876c7.73131,0 13.99876,6.26745 13.99876,13.99876c0,7.73131 -6.26745,13.99876 -13.99876,13.99876c-7.73131,0 -13.99876,-6.26745 -13.99876,-13.99876z"/><path d="M367.38265,111.89581c0,-5.26215 4.26581,-9.52795 9.52795,-9.52795c5.26214,0 9.52795,4.2658 9.52795,9.52795c0,5.26215 -4.26581,9.52796 -9.52795,9.52796c-5.26214,0 -9.52795,-4.26581 -9.52795,-9.52796z"/><path d="M374.79659,117.53929c0,-6.47648 5.25023,-11.72671 11.7267,-11.72671c6.47648,0 11.72671,5.25023 11.72671,11.72671c0,6.47648 -5.25023,11.72671 -11.72671,11.72671c-6.47648,0 -11.7267,-5.25023 -11.7267,-11.72671z"/><path d="M340.99756,129.33928v-20.96149h46.17392v20.96149z"/></g><g fill="#ffffff" stroke="none" stroke-width="0" stroke-linecap="butt"><path d="M291.52635,123.92336c0,-9.16676 7.43113,-16.5979 16.5979,-16.5979c9.16676,0 16.59791,7.43114 16.59791,16.5979c0,9.16676 -7.43115,16.5979 -16.59791,16.5979c-9.16676,0 -16.5979,-7.43114 -16.5979,-16.5979z"/><path d="M312.56872,109.81515c0,-10.94284 8.87091,-19.81374 19.81375,-19.81374c10.94284,0 19.81374,8.87091 19.81374,19.81374c0,10.94284 -8.87091,19.81375 -19.81374,19.81375c-10.94284,0 -19.81375,-8.87091 -19.81375,-19.81375z"/><path d="M343.27484,115.93562c0,-7.448 6.03781,-13.48579 13.48581,-13.48579c7.448,0 13.48579,6.03779 13.48579,13.48579c0,7.448 -6.0378,13.4858 -13.48579,13.4858c-7.448,0 -13.48581,-6.0378 -13.48581,-13.4858z"/><path d="M353.76848,123.92336c0,-9.16676 7.43114,-16.5979 16.5979,-16.5979c9.16676,0 16.5979,7.43114 16.5979,16.5979c0,9.16676 -7.43114,16.5979 -16.5979,16.5979c-9.16676,0 -16.5979,-7.43114 -16.5979,-16.5979z"/><path d="M305.92957,140.625v-29.66876h65.35424v29.66876z"/></g><path d="M74,308.81741v-49.63482h332v49.63482z" fill="#00ff08" stroke="#00ccff" stroke-width="0" stroke-linecap="butt"/><path d="M278.80729,284.33333c0,5.33875 -16.93856,9.66667 -37.83333,9.66667c-20.89478,0 -37.83334,-4.32791 -37.83334,-9.66667c0,-5.33875 16.93856,-9.66667 37.83334,-9.66667c20.89478,0 37.83333,4.32791 37.83333,9.66667z" fill="none" stroke="#009bff" stroke-width="7.5" stroke-linecap="butt"/><path d="M268.80729,265.5c0,4.14213 -12.78571,7.5 -28.55769,7.5c-15.77198,0 -28.55769,-3.35787 -28.55769,-7.5c0,-4.14213 12.78572,-7.5 28.55769,-7.5c15.77198,0 28.55769,3.35787 28.55769,7.5z" fill="none" stroke="#00ccff" stroke-width="7.5" stroke-linecap="butt"/><path d="M256.80729,251.66667c0,3.4978 -8.05888,6.33334 -18,6.33334c-9.94112,0 -18,-2.83553 -18,-6.33334c0,-3.4978 8.05888,-6.33333 18,-6.33333c9.94113,0 18,2.83552 18,6.33333z" fill="none" stroke="#00efff" stroke-width="7.5" stroke-linecap="butt"/><path d="M238.66667,246.33334c0,0 -5.54846,-9.5373 -6.33333,-55.83334c-0.8466,-49.93702 6.33333,-60.16666 6.33333,-60.16666" fill="none" stroke="#000000" stroke-width="12.5" stroke-linecap="round"/><path d="M209.14063,120c0,-16.2924 13.2076,-29.5 29.5,-29.5c16.2924,0 29.5,13.2076 29.5,29.5c0,16.2924 -13.2076,29.5 -29.5,29.5c-16.2924,0 -29.5,-13.2076 -29.5,-29.5z" fill="#ffd67b" stroke="#000000" stroke-width="12.5" stroke-linecap="butt"/><path d="M240.47396,112.16667v10" fill="none" stroke="#ff0000" stroke-width="7.5" stroke-linecap="round"/><path d="M252.14063,112.16667v10" fill="none" stroke="#ff0000" stroke-width="7.5" stroke-linecap="round"/><path d="M229.47396,131.5c0,0 2.62208,3.79693 12,4.33334c8.27376,0.47325 12,-4.33334 12,-4.33334" fill="none" stroke="#000000" stroke-width="7.5" stroke-linecap="round"/><path d="M185.80729,153.16667c0,0 2.77415,19.02 18.25744,30.6575c6.70726,5.04128 22.13137,-11.82694 27.41759,-11.84525c7.12978,-0.0247 24.14427,17.22862 32.17574,12.21426c18.14569,-11.32905 24.48257,-30.02651 24.48257,-30.02651" fill="none" stroke="#000000" stroke-width="12.5" stroke-linecap="round"/><path d="M236.47396,103.83334l9,6l10.66666,-5.66667" fill="none" stroke="#ff0000" stroke-width="7.5" stroke-linecap="round"/><g fill="#e6e6e6" stroke="none" stroke-width="0" stroke-linecap="butt"><path d="M85.25,89.3c0,-5.66692 4.59395,-10.26087 10.26087,-10.26087c5.66692,0 10.26087,4.59395 10.26087,10.26087c0,5.66692 -4.59395,10.26087 -10.26087,10.26087c-5.66692,0 -10.26087,-4.59395 -10.26087,-10.26087z"/><path d="M98.25846,80.57826c0,-6.76489 5.48402,-12.24891 12.24891,-12.24891c6.76489,0 12.24892,5.48402 12.24892,12.24891c0,6.76489 -5.48403,12.24891 -12.24892,12.24891c-6.76489,0 -12.24891,-5.48403 -12.24891,-12.24891z"/><path d="M117.24107,84.36196c0,-4.60438 3.73258,-8.33695 8.33696,-8.33695c4.60438,0 8.33696,3.73258 8.33696,8.33695c0,4.60438 -3.73258,8.33696 -8.33696,8.33696c-4.60438,0 -8.33696,-3.73258 -8.33696,-8.33696z"/><path d="M123.72826,89.3c0,-5.66692 4.59395,-10.26087 10.26087,-10.26087c5.66692,0 10.26087,4.59395 10.26087,10.26087c0,5.66692 -4.59395,10.26087 -10.26087,10.26087c-5.66692,0 -10.26087,-4.59395 -10.26087,-10.26087z"/><path d="M94.15411,99.625v-18.34131h40.40218v18.34131z"/></g><g fill="#e6e6e6" stroke="none" stroke-width="0" stroke-linecap="butt"><path d="M145.25,86.3c0,-5.66692 4.59395,-10.26087 10.26087,-10.26087c5.66692,0 10.26087,4.59395 10.26087,10.26087c0,5.66692 -4.59395,10.26087 -10.26087,10.26087c-5.66692,0 -10.26087,-4.59395 -10.26087,-10.26087z"/><path d="M158.25846,77.57826c0,-6.76489 5.48402,-12.24891 12.24891,-12.24891c6.76489,0 12.24891,5.48402 12.24891,12.24891c0,6.76489 -5.48402,12.24891 -12.24891,12.24891c-6.76489,0 -12.24891,-5.48403 -12.24891,-12.24891z"/><path d="M177.24107,81.36195c0,-4.60438 3.73259,-8.33695 8.33696,-8.33695c4.60438,0 8.33696,3.73258 8.33696,8.33695c0,4.60438 -3.73258,8.33696 -8.33696,8.33696c-4.60438,0 -8.33696,-3.73258 -8.33696,-8.33696z"/><path d="M183.72826,86.3c0,-5.66692 4.59395,-10.26087 10.26087,-10.26087c5.66692,0 10.26087,4.59395 10.26087,10.26087c0,5.66692 -4.59395,10.26087 -10.26087,10.26087c-5.66692,0 -10.26087,-4.59395 -10.26087,-10.26087z"/><path d="M154.15411,96.625v-18.34131h40.40218v18.34131z"/></g><g fill="#ffffff" stroke="none" stroke-width="0" stroke-linecap="butt"><path d="M111.7418,98.01107c0,-8.02092 6.50225,-14.52317 14.52317,-14.52317c8.02092,0 14.52317,6.50225 14.52317,14.52317c0,8.02092 -6.50225,14.52316 -14.52317,14.52316c-8.02092,0 -14.52317,-6.50224 -14.52317,-14.52316z"/><path d="M130.15389,85.66638c0,-9.57498 7.76205,-17.33702 17.33703,-17.33702c9.57498,0 17.33703,7.76205 17.33703,17.33702c0,9.57498 -7.76205,17.33703 -17.33703,17.33703c-9.57498,0 -17.33703,-7.76205 -17.33703,-17.33703z"/><path d="M157.02174,91.02179c0,-6.517 5.28308,-11.80007 11.80008,-11.80007c6.517,0 11.80007,5.28307 11.80007,11.80007c0,6.517 -5.28307,11.80008 -11.80007,11.80008c-6.517,0 -11.80008,-5.28308 -11.80008,-11.80008z"/><path d="M166.20367,98.01107c0,-8.02092 6.50225,-14.52317 14.52317,-14.52317c8.02092,0 14.52317,6.50225 14.52317,14.52317c0,8.02092 -6.50225,14.52316 -14.52317,14.52316c-8.02092,0 -14.52317,-6.50224 -14.52317,-14.52316z"/><path d="M124.34462,112.625v-25.96016h57.18496v25.96016z"/></g><path d="M301.68382,51.44413l68.4099,11.13848l-1.75141,14.14196l-262.49455,-25.74647z" fill="url(#color-6)" stroke="none" stroke-width="0" stroke-linecap="butt"/></g></g></svg>